<svg xmlns="http://www.w3.org/2000/svg" viewBox="0 0 16 16" width="512" height="512" shape-rendering="crispEdges">
  <defs>
    <clipPath id="circle">
      <circle cx="8" cy="8" r="8"/>
    </clipPath>
  </defs>
  <!-- Pink circle bg -->
  <circle cx="8" cy="8" r="8" fill="#F4B8C1"/>
  <!-- Cream inner -->
  <circle cx="8" cy="8" r="6.8" fill="#FAF3EE"/>
  <!-- Chihuahua face pixel art -->
  <g clip-path="url(#circle)">
    <!-- Row 0: ears top -->
    <rect x="2" y="0" width="1" height="1" fill="#1A1A1A"/>
    <rect x="3" y="0" width="1" height="1" fill="#1A1A1A"/>
    <rect x="12" y="0" width="1" height="1" fill="#1A1A1A"/>
    <rect x="13" y="0" width="1" height="1" fill="#1A1A1A"/>
    <!-- Row 1: ears -->
    <rect x="1" y="1" width="1" height="1" fill="#1A1A1A"/>
    <rect x="2" y="1" width="1" height="1" fill="#2A2A2A"/>
    <rect x="3" y="1" width="1" height="1" fill="#2A2A2A"/>
    <rect x="4" y="1" width="1" height="1" fill="#1A1A1A"/>
    <rect x="11" y="1" width="1" height="1" fill="#1A1A1A"/>
    <rect x="12" y="1" width="1" height="1" fill="#2A2A2A"/>
    <rect x="13" y="1" width="1" height="1" fill="#2A2A2A"/>
    <rect x="14" y="1" width="1" height="1" fill="#1A1A1A"/>
    <!-- Row 2: ears + head top -->
    <rect x="0" y="2" width="1" height="1" fill="#1A1A1A"/>
    <rect x="1" y="2" width="1" height="1" fill="#2A2A2A"/>
    <rect x="2" y="2" width="1" height="1" fill="#2A2A2A"/>
    <rect x="3" y="2" width="1" height="1" fill="#3D3D3D"/>
    <rect x="4" y="2" width="1" height="1" fill="#2A2A2A"/>
    <rect x="5" y="2" width="1" height="1" fill="#1A1A1A"/>
    <rect x="6" y="2" width="1" height="1" fill="#1A1A1A"/>
    <rect x="7" y="2" width="1" height="1" fill="#1A1A1A"/>
    <rect x="8" y="2" width="1" height="1" fill="#1A1A1A"/>
    <rect x="9" y="2" width="1" height="1" fill="#1A1A1A"/>
    <rect x="10" y="2" width="1" height="1" fill="#1A1A1A"/>
    <rect x="11" y="2" width="1" height="1" fill="#2A2A2A"/>
    <rect x="12" y="2" width="1" height="1" fill="#3D3D3D"/>
    <rect x="13" y="2" width="1" height="1" fill="#2A2A2A"/>
    <rect x="14" y="2" width="1" height="1" fill="#2A2A2A"/>
    <rect x="15" y="2" width="1" height="1" fill="#1A1A1A"/>
    <!-- Row 3: head -->
    <rect x="1" y="3" width="1" height="1" fill="#1A1A1A"/>
    <rect x="2" y="3" width="1" height="1" fill="#2A2A2A"/>
    <rect x="3" y="3" width="1" height="1" fill="#2A2A2A"/>
    <rect x="4" y="3" width="1" height="1" fill="#2A2A2A"/>
    <rect x="5" y="3" width="1" height="1" fill="#2A2A2A"/>
    <rect x="6" y="3" width="1" height="1" fill="#2A2A2A"/>
    <rect x="7" y="3" width="1" height="1" fill="#2A2A2A"/>
    <rect x="8" y="3" width="1" height="1" fill="#2A2A2A"/>
    <rect x="9" y="3" width="1" height="1" fill="#2A2A2A"/>
    <rect x="10" y="3" width="1" height="1" fill="#2A2A2A"/>
    <rect x="11" y="3" width="1" height="1" fill="#2A2A2A"/>
    <rect x="12" y="3" width="1" height="1" fill="#2A2A2A"/>
    <rect x="13" y="3" width="1" height="1" fill="#2A2A2A"/>
    <rect x="14" y="3" width="1" height="1" fill="#1A1A1A"/>
    <!-- Row 4: tan eyebrow area -->
    <rect x="1" y="4" width="1" height="1" fill="#1A1A1A"/>
    <rect x="2" y="4" width="1" height="1" fill="#2A2A2A"/>
    <rect x="3" y="4" width="1" height="1" fill="#2A2A2A"/>
    <rect x="4" y="4" width="1" height="1" fill="#D4956A"/>
    <rect x="5" y="4" width="1" height="1" fill="#D4956A"/>
    <rect x="6" y="4" width="1" height="1" fill="#2A2A2A"/>
    <rect x="7" y="4" width="1" height="1" fill="#2A2A2A"/>
    <rect x="8" y="4" width="1" height="1" fill="#2A2A2A"/>
    <rect x="9" y="4" width="1" height="1" fill="#D4956A"/>
    <rect x="10" y="4" width="1" height="1" fill="#D4956A"/>
    <rect x="11" y="4" width="1" height="1" fill="#2A2A2A"/>
    <rect x="12" y="4" width="1" height="1" fill="#2A2A2A"/>
    <rect x="13" y="4" width="1" height="1" fill="#2A2A2A"/>
    <rect x="14" y="4" width="1" height="1" fill="#1A1A1A"/>
    <!-- Row 5: eyes white -->
    <rect x="1" y="5" width="1" height="1" fill="#1A1A1A"/>
    <rect x="2" y="5" width="1" height="1" fill="#2A2A2A"/>
    <rect x="3" y="5" width="1" height="1" fill="#D4956A"/>
    <rect x="4" y="5" width="1" height="1" fill="#FFFFFF"/>
    <rect x="5" y="5" width="1" height="1" fill="#FFFFFF"/>
    <rect x="6" y="5" width="1" height="1" fill="#D4956A"/>
    <rect x="7" y="5" width="1" height="1" fill="#2A2A2A"/>
    <rect x="8" y="5" width="1" height="1" fill="#D4956A"/>
    <rect x="9" y="5" width="1" height="1" fill="#FFFFFF"/>
    <rect x="10" y="5" width="1" height="1" fill="#FFFFFF"/>
    <rect x="11" y="5" width="1" height="1" fill="#D4956A"/>
    <rect x="12" y="5" width="1" height="1" fill="#2A2A2A"/>
    <rect x="13" y="5" width="1" height="1" fill="#2A2A2A"/>
    <rect x="14" y="5" width="1" height="1" fill="#1A1A1A"/>
    <!-- Row 6: eyes pupils -->
    <rect x="1" y="6" width="1" height="1" fill="#1A1A1A"/>
    <rect x="2" y="6" width="1" height="1" fill="#2A2A2A"/>
    <rect x="3" y="6" width="1" height="1" fill="#D4956A"/>
    <rect x="4" y="6" width="1" height="1" fill="#FFFFFF"/>
    <rect x="5" y="6" width="1" height="1" fill="#111111"/>
    <rect x="6" y="6" width="1" height="1" fill="#D4956A"/>
    <rect x="7" y="6" width="1" height="1" fill="#D4956A"/>
    <rect x="8" y="6" width="1" height="1" fill="#D4956A"/>
    <rect x="9" y="6" width="1" height="1" fill="#FFFFFF"/>
    <rect x="10" y="6" width="1" height="1" fill="#111111"/>
    <rect x="11" y="6" width="1" height="1" fill="#D4956A"/>
    <rect x="12" y="6" width="1" height="1" fill="#2A2A2A"/>
    <rect x="13" y="6" width="1" height="1" fill="#2A2A2A"/>
    <rect x="14" y="6" width="1" height="1" fill="#1A1A1A"/>
    <!-- Row 7: below eyes -->
    <rect x="1" y="7" width="1" height="1" fill="#1A1A1A"/>
    <rect x="2" y="7" width="1" height="1" fill="#2A2A2A"/>
    <rect x="3" y="7" width="1" height="1" fill="#D4956A"/>
    <rect x="4" y="7" width="1" height="1" fill="#D4956A"/>
    <rect x="5" y="7" width="1" height="1" fill="#D4956A"/>
    <rect x="6" y="7" width="1" height="1" fill="#D4956A"/>
    <rect x="7" y="7" width="1" height="1" fill="#D4956A"/>
    <rect x="8" y="7" width="1" height="1" fill="#D4956A"/>
    <rect x="9" y="7" width="1" height="1" fill="#D4956A"/>
    <rect x="10" y="7" width="1" height="1" fill="#D4956A"/>
    <rect x="11" y="7" width="1" height="1" fill="#D4956A"/>
    <rect x="12" y="7" width="1" height="1" fill="#2A2A2A"/>
    <rect x="13" y="7" width="1" height="1" fill="#2A2A2A"/>
    <rect x="14" y="7" width="1" height="1" fill="#1A1A1A"/>
    <!-- Row 8: muzzle top -->
    <rect x="1" y="8" width="1" height="1" fill="#1A1A1A"/>
    <rect x="2" y="8" width="1" height="1" fill="#D4956A"/>
    <rect x="3" y="8" width="1" height="1" fill="#D4956A"/>
    <rect x="4" y="8" width="1" height="1" fill="#D4956A"/>
    <rect x="5" y="8" width="1" height="1" fill="#E8B88A"/>
    <rect x="6" y="8" width="1" height="1" fill="#E8B88A"/>
    <rect x="7" y="8" width="1" height="1" fill="#1A1A1A"/>
    <rect x="8" y="8" width="1" height="1" fill="#E8B88A"/>
    <rect x="9" y="8" width="1" height="1" fill="#E8B88A"/>
    <rect x="10" y="8" width="1" height="1" fill="#D4956A"/>
    <rect x="11" y="8" width="1" height="1" fill="#D4956A"/>
    <rect x="12" y="8" width="1" height="1" fill="#D4956A"/>
    <rect x="13" y="8" width="1" height="1" fill="#D4956A"/>
    <rect x="14" y="8" width="1" height="1" fill="#1A1A1A"/>
    <!-- Row 9: nose -->
    <rect x="1" y="9" width="1" height="1" fill="#1A1A1A"/>
    <rect x="2" y="9" width="1" height="1" fill="#D4956A"/>
    <rect x="3" y="9" width="1" height="1" fill="#D4956A"/>
    <rect x="4" y="9" width="1" height="1" fill="#D4956A"/>
    <rect x="5" y="9" width="1" height="1" fill="#E8B88A"/>
    <rect x="6" y="9" width="1" height="1" fill="#1A1A1A"/>
    <rect x="7" y="9" width="1" height="1" fill="#E8B88A"/>
    <rect x="8" y="9" width="1" height="1" fill="#1A1A1A"/>
    <rect x="9" y="9" width="1" height="1" fill="#E8B88A"/>
    <rect x="10" y="9" width="1" height="1" fill="#D4956A"/>
    <rect x="11" y="9" width="1" height="1" fill="#D4956A"/>
    <rect x="12" y="9" width="1" height="1" fill="#D4956A"/>
    <rect x="13" y="9" width="1" height="1" fill="#D4956A"/>
    <rect x="14" y="9" width="1" height="1" fill="#1A1A1A"/>
    <!-- Row 10: mouth area -->
    <rect x="2" y="10" width="1" height="1" fill="#1A1A1A"/>
    <rect x="3" y="10" width="1" height="1" fill="#D4956A"/>
    <rect x="4" y="10" width="1" height="1" fill="#D4956A"/>
    <rect x="5" y="10" width="1" height="1" fill="#E8B88A"/>
    <rect x="6" y="10" width="1" height="1" fill="#E8B88A"/>
    <rect x="7" y="10" width="1" height="1" fill="#E8B88A"/>
    <rect x="8" y="10" width="1" height="1" fill="#E8B88A"/>
    <rect x="9" y="10" width="1" height="1" fill="#E8B88A"/>
    <rect x="10" y="10" width="1" height="1" fill="#D4956A"/>
    <rect x="11" y="10" width="1" height="1" fill="#D4956A"/>
    <rect x="12" y="10" width="1" height="1" fill="#D4956A"/>
    <rect x="13" y="10" width="1" height="1" fill="#1A1A1A"/>
    <!-- Row 11 -->
    <rect x="2" y="11" width="1" height="1" fill="#1A1A1A"/>
    <rect x="3" y="11" width="1" height="1" fill="#D4956A"/>
    <rect x="4" y="11" width="1" height="1" fill="#D4956A"/>
    <rect x="5" y="11" width="1" height="1" fill="#D4956A"/>
    <rect x="6" y="11" width="1" height="1" fill="#E8B88A"/>
    <rect x="7" y="11" width="1" height="1" fill="#E8B88A"/>
    <rect x="8" y="11" width="1" height="1" fill="#E8B88A"/>
    <rect x="9" y="11" width="1" height="1" fill="#D4956A"/>
    <rect x="10" y="11" width="1" height="1" fill="#D4956A"/>
    <rect x="11" y="11" width="1" height="1" fill="#D4956A"/>
    <rect x="12" y="11" width="1" height="1" fill="#D4956A"/>
    <rect x="13" y="11" width="1" height="1" fill="#1A1A1A"/>
    <!-- Row 12: blush + cheeks -->
    <rect x="2" y="12" width="1" height="1" fill="#1A1A1A"/>
    <rect x="3" y="12" width="1" height="1" fill="#D46F86"/>
    <rect x="4" y="12" width="1" height="1" fill="#D4956A"/>
    <rect x="5" y="12" width="1" height="1" fill="#D4956A"/>
    <rect x="6" y="12" width="1" height="1" fill="#D4956A"/>
    <rect x="7" y="12" width="1" height="1" fill="#D4956A"/>
    <rect x="8" y="12" width="1" height="1" fill="#D4956A"/>
    <rect x="9" y="12" width="1" height="1" fill="#D4956A"/>
    <rect x="10" y="12" width="1" height="1" fill="#D4956A"/>
    <rect x="11" y="12" width="1" height="1" fill="#D46F86"/>
    <rect x="12" y="12" width="1" height="1" fill="#D4956A"/>
    <rect x="13" y="12" width="1" height="1" fill="#1A1A1A"/>
    <!-- Row 13: chin -->
    <rect x="3" y="13" width="1" height="1" fill="#1A1A1A"/>
    <rect x="4" y="13" width="1" height="1" fill="#2A2A2A"/>
    <rect x="5" y="13" width="1" height="1" fill="#D4956A"/>
    <rect x="6" y="13" width="1" height="1" fill="#D4956A"/>
    <rect x="7" y="13" width="1" height="1" fill="#D4956A"/>
    <rect x="8" y="13" width="1" height="1" fill="#D4956A"/>
    <rect x="9" y="13" width="1" height="1" fill="#D4956A"/>
    <rect x="10" y="13" width="1" height="1" fill="#2A2A2A"/>
    <rect x="11" y="13" width="1" height="1" fill="#1A1A1A"/>
    <!-- Row 14: bottom -->
    <rect x="4" y="14" width="1" height="1" fill="#1A1A1A"/>
    <rect x="5" y="14" width="1" height="1" fill="#1A1A1A"/>
    <rect x="6" y="14" width="1" height="1" fill="#1A1A1A"/>
    <rect x="7" y="14" width="1" height="1" fill="#1A1A1A"/>
    <rect x="8" y="14" width="1" height="1" fill="#1A1A1A"/>
    <rect x="9" y="14" width="1" height="1" fill="#1A1A1A"/>
    <rect x="10" y="14" width="1" height="1" fill="#1A1A1A"/>
  </g>
</svg>
